M48
METRIC,TZ
T01C3.20
T02C1.20
T03C0.90
T04C0.80
T05C0.30
T06C1.00
%
T01
X16000.000Y60000.000
X16000.000Y46000.000
X12000.000Y32000.000
T02
X18000.000Y38000.000
X38000.000Y38000.000
T03
X42500.000Y33000.000
X47500.000Y33000.000
X21500.000Y28500.000
X26500.000Y28500.000
X33500.000Y46000.000
X38500.000Y46000.000
T04
X31000.000Y16000.000
X31000.000Y11000.000
X20500.000Y16000.000
X20500.000Y11000.000
X49500.000Y50000.000
X54500.000Y50000.000
T05
X48000.000Y66500.000
T06
X96000.000Y28350.000
X96000.000Y25810.000
X96000.000Y23270.000
X96000.000Y20730.000
X96000.000Y18190.000
X96000.000Y15650.000
M30
