G04 EC-SEAL1 rev B F.Mask v0.0.1 doc-1.2*
%FSLAX46Y46*%
%MOMM*%
%LPD*%
%ADD10C,0.250*%
%ADD11C,0.600*%
%ADD12C,0.150*%
%ADD40C,6.100*%
D40*
X16000000Y60000000D03*
%ADD41C,6.100*%
D41*
X16000000Y46000000D03*
%ADD42C,6.100*%
D42*
X12000000Y32000000D03*
%ADD43R,2.100X2.500*%
D43*
X22800000Y46000000D03*
%ADD44R,1.500X1.500*%
D44*
X25200000Y46000000D03*
%ADD45R,2.100X2.500*%
D45*
X22800000Y58000000D03*
%ADD46R,1.500X1.500*%
D46*
X25200000Y58000000D03*
%ADD47C,2.300*%
D47*
X18000000Y38000000D03*
%ADD48C,2.300*%
D48*
X38000000Y38000000D03*
%ADD49C,1.900*%
D49*
X42500000Y33000000D03*
%ADD50C,1.900*%
D50*
X47500000Y33000000D03*
%ADD51R,1.300X1.100*%
D51*
X42500000Y26600000D03*
%ADD52R,1.300X1.100*%
D52*
X42500000Y23400000D03*
%ADD53R,1.500X1.500*%
D53*
X42500000Y21000000D03*
%ADD54R,1.500X1.500*%
D54*
X42500000Y17000000D03*
%ADD55C,1.700*%
D55*
X31000000Y16000000D03*
%ADD56C,1.700*%
D56*
X31000000Y11000000D03*
%ADD57C,1.900*%
D57*
X21500000Y28500000D03*
%ADD58C,1.900*%
D58*
X26500000Y28500000D03*
%ADD59C,1.700*%
D59*
X20500000Y16000000D03*
%ADD60C,1.700*%
D60*
X20500000Y11000000D03*
%ADD61R,1.600X0.700*%
D61*
X30800000Y30405000D03*
%ADD62R,1.600X0.700*%
D62*
X30800000Y29135000D03*
%ADD63R,1.600X0.700*%
D63*
X30800000Y26595000D03*
%ADD64R,1.600X0.700*%
D64*
X36200000Y26595000D03*
%ADD65R,1.600X0.700*%
D65*
X36200000Y27865000D03*
%ADD66R,1.600X0.700*%
D66*
X36200000Y29135000D03*
%ADD67R,1.600X0.700*%
D67*
X36200000Y30405000D03*
%ADD68R,1.500X1.500*%
D68*
X34000000Y21500000D03*
%ADD69R,1.500X1.500*%
D69*
X38000000Y21500000D03*
%ADD70C,1.900*%
D70*
X33500000Y46000000D03*
%ADD71C,1.900*%
D71*
X38500000Y46000000D03*
%ADD72R,0.700X0.800*%
D72*
X29800000Y33500000D03*
%ADD73R,0.700X0.800*%
D73*
X31200000Y33500000D03*
%ADD74R,0.700X0.800*%
D74*
X33300000Y33500000D03*
%ADD75R,0.700X0.800*%
D75*
X34700000Y33500000D03*
%ADD76R,0.700X0.800*%
D76*
X36300000Y33500000D03*
%ADD77R,0.700X0.800*%
D77*
X37700000Y33500000D03*
%ADD78R,1.500X1.500*%
D78*
X34000000Y54000000D03*
%ADD79R,1.500X1.500*%
D79*
X38000000Y54000000D03*
%ADD80R,1.100X1.300*%
D80*
X39400000Y57000000D03*
%ADD81R,1.100X1.300*%
D81*
X42600000Y57000000D03*
%ADD82R,0.900X1.100*%
D82*
X48400000Y58000000D03*
%ADD83R,0.900X1.100*%
D83*
X51600000Y58000000D03*
%ADD84C,1.700*%
D84*
X49500000Y50000000D03*
%ADD85C,1.700*%
D85*
X54500000Y50000000D03*
%ADD86R,0.700X0.800*%
D86*
X55300000Y56000000D03*
%ADD87R,0.700X0.800*%
D87*
X56700000Y56000000D03*
%ADD88R,1.300X1.500*%
D88*
X58800000Y59500000D03*
%ADD89R,1.300X1.500*%
D89*
X58800000Y56500000D03*
%ADD90R,1.300X1.500*%
D90*
X65200000Y59500000D03*
%ADD91R,3.600X1.700*%
D91*
X62000000Y55800000D03*
%ADD92R,1.000X1.300*%
D92*
X73000000Y62000000D03*
%ADD93R,1.000X1.300*%
D93*
X75000000Y62000000D03*
%ADD94R,0.800X0.900*%
D94*
X57300000Y50000000D03*
%ADD95R,0.800X0.900*%
D95*
X58700000Y50000000D03*
%ADD96R,1.100X1.300*%
D96*
X18400000Y7000000D03*
%ADD97R,1.100X1.300*%
D97*
X21600000Y7000000D03*
%ADD98R,1.100X1.300*%
D98*
X25400000Y7000000D03*
%ADD99R,1.100X1.300*%
D99*
X28600000Y7000000D03*
%ADD100R,1.100X1.300*%
D100*
X32400000Y7000000D03*
%ADD101R,1.100X1.300*%
D101*
X35600000Y7000000D03*
%ADD102R,1.100X1.300*%
D102*
X39400000Y7000000D03*
%ADD103R,1.100X1.300*%
D103*
X42600000Y7000000D03*
%ADD104R,0.800X0.900*%
D104*
X49200000Y7000000D03*
%ADD105R,0.800X0.900*%
D105*
X50800000Y7000000D03*
%ADD106R,0.900X0.800*%
D106*
X53000000Y8700000D03*
%ADD107R,0.900X0.800*%
D107*
X53000000Y10300000D03*
%ADD108R,0.800X0.900*%
D108*
X55200000Y7000000D03*
%ADD109R,0.800X0.900*%
D109*
X56800000Y7000000D03*
%ADD110R,0.700X0.700*%
D110*
X55000000Y22000000D03*
%ADD111R,0.700X0.700*%
D111*
X57000000Y22000000D03*
%ADD112R,0.800X0.900*%
D112*
X59200000Y24000000D03*
%ADD113R,0.800X0.900*%
D113*
X60800000Y24000000D03*
%ADD114R,0.800X0.900*%
D114*
X59200000Y28000000D03*
%ADD115R,0.800X0.900*%
D115*
X60800000Y28000000D03*
%ADD116R,0.900X0.800*%
D116*
X60000000Y31200000D03*
%ADD117R,0.900X0.800*%
D117*
X60000000Y32800000D03*
%ADD118C,0.700*%
D118*
X48000000Y66500000D03*
%ADD119R,0.800X0.380*%
D119*
X67800000Y29250000D03*
%ADD120R,0.800X0.380*%
D120*
X67800000Y28750000D03*
%ADD121R,0.800X0.380*%
D121*
X67800000Y28250000D03*
%ADD122R,0.800X0.380*%
D122*
X67800000Y27750000D03*
%ADD123R,0.800X0.380*%
D123*
X67800000Y27250000D03*
%ADD124R,0.800X0.380*%
D124*
X67800000Y26750000D03*
%ADD125R,0.380X0.800*%
D125*
X68750000Y25800000D03*
%ADD126R,0.380X0.800*%
D126*
X69250000Y25800000D03*
%ADD127R,0.380X0.800*%
D127*
X69750000Y25800000D03*
%ADD128R,0.380X0.800*%
D128*
X70250000Y25800000D03*
%ADD129R,0.380X0.800*%
D129*
X70750000Y25800000D03*
%ADD130R,0.380X0.800*%
D130*
X71250000Y25800000D03*
%ADD131R,0.800X0.380*%
D131*
X72200000Y26750000D03*
%ADD132R,0.800X0.380*%
D132*
X72200000Y27250000D03*
%ADD133R,0.800X0.380*%
D133*
X72200000Y27750000D03*
%ADD134R,0.800X0.380*%
D134*
X72200000Y28250000D03*
%ADD135R,0.800X0.380*%
D135*
X72200000Y28750000D03*
%ADD136R,0.800X0.380*%
D136*
X72200000Y29250000D03*
%ADD137R,0.380X0.800*%
D137*
X68750000Y30200000D03*
%ADD138R,0.380X0.800*%
D138*
X69250000Y30200000D03*
%ADD139R,0.380X0.800*%
D139*
X69750000Y30200000D03*
%ADD140R,0.380X0.800*%
D140*
X70250000Y30200000D03*
%ADD141R,0.380X0.800*%
D141*
X70750000Y30200000D03*
%ADD142R,0.380X0.800*%
D142*
X71250000Y30200000D03*
%ADD143R,2.500X2.500*%
D143*
X70000000Y28000000D03*
%ADD144R,1.000X1.100*%
D144*
X68900000Y16000000D03*
%ADD145R,1.000X1.100*%
D145*
X71100000Y16000000D03*
%ADD146R,0.800X0.700*%
D146*
X64000000Y15300000D03*
%ADD147R,0.800X0.700*%
D147*
X64000000Y16700000D03*
%ADD148R,0.800X0.700*%
D148*
X76000000Y15300000D03*
%ADD149R,0.800X0.700*%
D149*
X76000000Y16700000D03*
%ADD150R,0.700X0.800*%
D150*
X77300000Y22000000D03*
%ADD151R,0.700X0.800*%
D151*
X78700000Y22000000D03*
%ADD152R,0.700X0.800*%
D152*
X77300000Y34000000D03*
%ADD153R,0.700X0.800*%
D153*
X78700000Y34000000D03*
%ADD154R,0.700X0.800*%
D154*
X61300000Y34000000D03*
%ADD155R,0.700X0.800*%
D155*
X62700000Y34000000D03*
%ADD156R,0.700X0.800*%
D156*
X61300000Y22000000D03*
%ADD157R,0.700X0.800*%
D157*
X62700000Y22000000D03*
%ADD158R,0.800X0.700*%
D158*
X62000000Y15300000D03*
%ADD159R,0.800X0.700*%
D159*
X62000000Y16700000D03*
%ADD160R,0.700X0.800*%
D160*
X77300000Y12000000D03*
%ADD161R,0.700X0.800*%
D161*
X78700000Y12000000D03*
%ADD162R,0.700X0.800*%
D162*
X85300000Y16000000D03*
%ADD163R,0.700X0.800*%
D163*
X86700000Y16000000D03*
%ADD164R,0.800X0.700*%
D164*
X86000000Y11300000D03*
%ADD165R,0.800X0.700*%
D165*
X86000000Y12700000D03*
%ADD166R,0.700X0.700*%
D166*
X91000000Y16900000D03*
%ADD167R,0.700X0.700*%
D167*
X91000000Y15100000D03*
%ADD168R,0.700X0.700*%
D168*
X93000000Y16000000D03*
%ADD169R,0.800X0.700*%
D169*
X92000000Y21300000D03*
%ADD170R,0.800X0.700*%
D170*
X92000000Y22700000D03*
%ADD171R,0.800X0.700*%
D171*
X86000000Y63300000D03*
%ADD172R,0.800X0.700*%
D172*
X86000000Y64700000D03*
%ADD173R,0.800X0.700*%
D173*
X92000000Y57300000D03*
%ADD174R,0.800X0.700*%
D174*
X92000000Y58700000D03*
%ADD175R,0.900X0.900*%
D175*
X94800000Y64000000D03*
%ADD176R,0.900X0.900*%
D176*
X97200000Y64000000D03*
%ADD177R,0.700X0.800*%
D177*
X85300000Y52000000D03*
%ADD178R,0.700X0.800*%
D178*
X86700000Y52000000D03*
%ADD179R,0.800X0.700*%
D179*
X80000000Y51300000D03*
%ADD180R,0.800X0.700*%
D180*
X80000000Y52700000D03*
%ADD181R,0.700X0.700*%
D181*
X91000000Y50900000D03*
%ADD182R,0.700X0.700*%
D182*
X91000000Y49100000D03*
%ADD183R,0.700X0.700*%
D183*
X93000000Y50000000D03*
%ADD184R,0.800X0.700*%
D184*
X96000000Y53300000D03*
%ADD185R,0.800X0.700*%
D185*
X96000000Y54700000D03*
%ADD186R,0.700X0.700*%
D186*
X91000000Y59100000D03*
%ADD187R,0.700X0.700*%
D187*
X91000000Y60900000D03*
%ADD188R,0.700X0.700*%
D188*
X93000000Y60000000D03*
%ADD189R,0.700X0.800*%
D189*
X83300000Y46000000D03*
%ADD190R,0.700X0.800*%
D190*
X84700000Y46000000D03*
%ADD191R,0.700X0.800*%
D191*
X83300000Y40000000D03*
%ADD192R,0.700X0.800*%
D192*
X84700000Y40000000D03*
%ADD193R,0.800X0.700*%
D193*
X90000000Y39300000D03*
%ADD194R,0.800X0.700*%
D194*
X90000000Y40700000D03*
%ADD195R,0.700X0.700*%
D195*
X81000000Y35900000D03*
%ADD196R,0.700X0.700*%
D196*
X81000000Y34100000D03*
%ADD197R,0.700X0.700*%
D197*
X83000000Y35000000D03*
%ADD198R,0.700X0.700*%
D198*
X95000000Y36900000D03*
%ADD199R,0.700X0.700*%
D199*
X95000000Y35100000D03*
%ADD200R,0.700X0.700*%
D200*
X97000000Y36000000D03*
%ADD201R,0.900X1.100*%
D201*
X86600000Y32000000D03*
%ADD202R,0.900X1.100*%
D202*
X89400000Y32000000D03*
%ADD203R,0.800X0.380*%
D203*
X75300000Y47750000D03*
%ADD204R,0.800X0.380*%
D204*
X75300000Y47250000D03*
%ADD205R,0.800X0.380*%
D205*
X75300000Y46750000D03*
%ADD206R,0.800X0.380*%
D206*
X75300000Y46250000D03*
%ADD207R,0.800X0.380*%
D207*
X75300000Y45750000D03*
%ADD208R,0.800X0.380*%
D208*
X75300000Y45250000D03*
%ADD209R,0.800X0.380*%
D209*
X75300000Y44750000D03*
%ADD210R,0.800X0.380*%
D210*
X75300000Y44250000D03*
%ADD211R,0.380X0.800*%
D211*
X76250000Y43300000D03*
%ADD212R,0.380X0.800*%
D212*
X76750000Y43300000D03*
%ADD213R,0.380X0.800*%
D213*
X77250000Y43300000D03*
%ADD214R,0.380X0.800*%
D214*
X77750000Y43300000D03*
%ADD215R,0.380X0.800*%
D215*
X78250000Y43300000D03*
%ADD216R,0.380X0.800*%
D216*
X78750000Y43300000D03*
%ADD217R,0.380X0.800*%
D217*
X79250000Y43300000D03*
%ADD218R,0.380X0.800*%
D218*
X79750000Y43300000D03*
%ADD219R,0.800X0.380*%
D219*
X80700000Y44250000D03*
%ADD220R,0.800X0.380*%
D220*
X80700000Y44750000D03*
%ADD221R,0.800X0.380*%
D221*
X80700000Y45250000D03*
%ADD222R,0.800X0.380*%
D222*
X80700000Y45750000D03*
%ADD223R,0.800X0.380*%
D223*
X80700000Y46250000D03*
%ADD224R,0.800X0.380*%
D224*
X80700000Y46750000D03*
%ADD225R,0.800X0.380*%
D225*
X80700000Y47250000D03*
%ADD226R,0.800X0.380*%
D226*
X80700000Y47750000D03*
%ADD227R,0.380X0.800*%
D227*
X76250000Y48700000D03*
%ADD228R,0.380X0.800*%
D228*
X76750000Y48700000D03*
%ADD229R,0.380X0.800*%
D229*
X77250000Y48700000D03*
%ADD230R,0.380X0.800*%
D230*
X77750000Y48700000D03*
%ADD231R,0.380X0.800*%
D231*
X78250000Y48700000D03*
%ADD232R,0.380X0.800*%
D232*
X78750000Y48700000D03*
%ADD233R,0.380X0.800*%
D233*
X79250000Y48700000D03*
%ADD234R,0.380X0.800*%
D234*
X79750000Y48700000D03*
%ADD235R,3.200X3.200*%
D235*
X78000000Y46000000D03*
%ADD236R,0.700X0.700*%
D236*
X88900000Y46600000D03*
%ADD237R,0.700X0.700*%
D237*
X88900000Y45400000D03*
%ADD238R,0.700X0.700*%
D238*
X91100000Y46000000D03*
%ADD239R,0.800X0.700*%
D239*
X70000000Y39300000D03*
%ADD240R,0.800X0.700*%
D240*
X70000000Y40700000D03*
%ADD241R,0.800X0.380*%
D241*
X59300000Y47750000D03*
%ADD242R,0.800X0.380*%
D242*
X59300000Y47250000D03*
%ADD243R,0.800X0.380*%
D243*
X59300000Y46750000D03*
%ADD244R,0.800X0.380*%
D244*
X59300000Y46250000D03*
%ADD245R,0.800X0.380*%
D245*
X59300000Y45750000D03*
%ADD246R,0.800X0.380*%
D246*
X59300000Y45250000D03*
%ADD247R,0.800X0.380*%
D247*
X59300000Y44750000D03*
%ADD248R,0.800X0.380*%
D248*
X59300000Y44250000D03*
%ADD249R,0.380X0.800*%
D249*
X60250000Y43300000D03*
%ADD250R,0.380X0.800*%
D250*
X60750000Y43300000D03*
%ADD251R,0.380X0.800*%
D251*
X61250000Y43300000D03*
%ADD252R,0.380X0.800*%
D252*
X61750000Y43300000D03*
%ADD253R,0.380X0.800*%
D253*
X62250000Y43300000D03*
%ADD254R,0.380X0.800*%
D254*
X62750000Y43300000D03*
%ADD255R,0.380X0.800*%
D255*
X63250000Y43300000D03*
%ADD256R,0.380X0.800*%
D256*
X63750000Y43300000D03*
%ADD257R,0.800X0.380*%
D257*
X64700000Y44250000D03*
%ADD258R,0.800X0.380*%
D258*
X64700000Y44750000D03*
%ADD259R,0.800X0.380*%
D259*
X64700000Y45250000D03*
%ADD260R,0.800X0.380*%
D260*
X64700000Y45750000D03*
%ADD261R,0.800X0.380*%
D261*
X64700000Y46250000D03*
%ADD262R,0.800X0.380*%
D262*
X64700000Y46750000D03*
%ADD263R,0.800X0.380*%
D263*
X64700000Y47250000D03*
%ADD264R,0.800X0.380*%
D264*
X64700000Y47750000D03*
%ADD265R,0.380X0.800*%
D265*
X60250000Y48700000D03*
%ADD266R,0.380X0.800*%
D266*
X60750000Y48700000D03*
%ADD267R,0.380X0.800*%
D267*
X61250000Y48700000D03*
%ADD268R,0.380X0.800*%
D268*
X61750000Y48700000D03*
%ADD269R,0.380X0.800*%
D269*
X62250000Y48700000D03*
%ADD270R,0.380X0.800*%
D270*
X62750000Y48700000D03*
%ADD271R,0.380X0.800*%
D271*
X63250000Y48700000D03*
%ADD272R,0.380X0.800*%
D272*
X63750000Y48700000D03*
%ADD273R,3.200X3.200*%
D273*
X62000000Y46000000D03*
%ADD274R,0.700X0.800*%
D274*
X69300000Y64000000D03*
%ADD275R,0.700X0.800*%
D275*
X70700000Y64000000D03*
%ADD276R,0.800X0.700*%
D276*
X54000000Y63300000D03*
%ADD277R,0.800X0.700*%
D277*
X54000000Y64700000D03*
%ADD278R,0.700X0.800*%
D278*
X91300000Y28000000D03*
%ADD279R,0.700X0.800*%
D279*
X92700000Y28000000D03*
%ADD280C,1.700*%
D280*
X96000000Y28350000D03*
%ADD281C,1.700*%
D281*
X96000000Y25810000D03*
%ADD282C,1.700*%
D282*
X96000000Y23270000D03*
%ADD283C,1.700*%
D283*
X96000000Y20730000D03*
%ADD284C,1.700*%
D284*
X96000000Y18190000D03*
%ADD285C,1.700*%
D285*
X96000000Y15650000D03*
%ADD286R,0.900X0.900*%
D286*
X70000000Y6000000D03*
%ADD287R,0.900X0.900*%
D287*
X71270000Y6000000D03*
%ADD288R,0.900X0.900*%
D288*
X72540000Y6000000D03*
%ADD289R,0.900X0.900*%
D289*
X73810000Y6000000D03*
%ADD290R,0.900X0.900*%
D290*
X75080000Y6000000D03*
%ADD291R,0.900X0.900*%
D291*
X76350000Y6000000D03*
%ADD292R,0.900X0.900*%
D292*
X77620000Y6000000D03*
%ADD293R,0.900X0.900*%
D293*
X78890000Y6000000D03*
%ADD294R,1.600X1.600*%
D294*
X96000000Y6000000D03*
%ADD295R,1.600X1.600*%
D295*
X96000000Y9000000D03*
%ADD296R,0.700X0.800*%
D296*
X81300000Y12000000D03*
%ADD297R,0.700X0.800*%
D297*
X82700000Y12000000D03*
%ADD298R,0.700X0.800*%
D298*
X81300000Y8000000D03*
%ADD299R,0.700X0.800*%
D299*
X82700000Y8000000D03*
%ADD300R,0.700X0.800*%
D300*
X83800000Y4500000D03*
%ADD301R,0.700X0.800*%
D301*
X85200000Y4500000D03*
%ADD302R,0.700X0.700*%
D302*
X87000000Y8900000D03*
%ADD303R,0.700X0.700*%
D303*
X87000000Y7100000D03*
%ADD304R,0.700X0.700*%
D304*
X89000000Y8000000D03*
%ADD305R,0.800X0.700*%
D305*
X92000000Y9300000D03*
%ADD306R,0.800X0.700*%
D306*
X92000000Y10700000D03*
%ADD307R,1.600X0.700*%
D307*
X81300000Y26905000D03*
%ADD308R,1.600X0.700*%
D308*
X81300000Y25635000D03*
%ADD309R,1.600X0.700*%
D309*
X81300000Y24365000D03*
%ADD310R,1.600X0.700*%
D310*
X81300000Y23095000D03*
%ADD311R,1.600X0.700*%
D311*
X86700000Y23095000D03*
%ADD312R,1.600X0.700*%
D312*
X86700000Y24365000D03*
%ADD313R,1.600X0.700*%
D313*
X86700000Y25635000D03*
%ADD314R,1.600X0.700*%
D314*
X86700000Y26905000D03*
%ADD315R,0.700X0.800*%
D315*
X83300000Y30000000D03*
%ADD316R,0.700X0.800*%
D316*
X84700000Y30000000D03*
M02*
