G04 EC-SEAL1 rev B F.Cu v0.0.1 doc-1.2*
%FSLAX46Y46*%
%MOMM*%
%LPD*%
%ADD10C,0.250*%
%ADD11C,0.600*%
%ADD12C,0.150*%
G04 pour L_GEN*
G36*
X13000000Y43000000D02*
X24000000Y43000000D01*
X24000000Y49000000D01*
X13000000Y49000000D01*
X13000000Y43000000D01*
G37*
G04 pour GND*
G36*
X13000000Y55000000D02*
X24200000Y55000000D01*
X24200000Y67000000D01*
X13000000Y67000000D01*
X13000000Y55000000D01*
G37*
G04 pour GND*
G36*
X24000000Y66000000D02*
X48800000Y66000000D01*
X48800000Y67000000D01*
X24000000Y67000000D01*
X24000000Y66000000D01*
G37*
G04 pour N*
G36*
X9000000Y29000000D02*
X15000000Y29000000D01*
X15000000Y35000000D01*
X9000000Y35000000D01*
X9000000Y29000000D01*
G37*
G04 pour N*
G36*
X12000000Y35000000D02*
X19100000Y35000000D01*
X19100000Y39100000D01*
X12000000Y39100000D01*
X12000000Y35000000D01*
G37*
G04 pour N*
G36*
X9600000Y6400000D02*
X10400000Y6400000D01*
X10400000Y29000000D01*
X9600000Y29000000D01*
X9600000Y6400000D01*
G37*
G04 pour N*
G36*
X9600000Y6400000D02*
X19000000Y6400000D01*
X19000000Y7600000D01*
X9600000Y7600000D01*
X9600000Y6400000D01*
G37*
D10*
X43125000Y6875000D02*
X43375000Y6875000D01*
D10*
X43125000Y6875000D02*
X43125000Y7125000D01*
D10*
X43375000Y6875000D02*
X43625000Y6875000D01*
D10*
X43375000Y6875000D02*
X43375000Y7125000D01*
D10*
X43625000Y6875000D02*
X43875000Y6875000D01*
D10*
X43625000Y6875000D02*
X43625000Y7125000D01*
D10*
X43875000Y6875000D02*
X44125000Y6875000D01*
D10*
X43875000Y6875000D02*
X43875000Y7125000D01*
D10*
X44125000Y6875000D02*
X44375000Y6875000D01*
D10*
X44125000Y6875000D02*
X44125000Y7125000D01*
D10*
X44375000Y6875000D02*
X44625000Y6875000D01*
D10*
X44375000Y6875000D02*
X44375000Y7125000D01*
D10*
X44625000Y6875000D02*
X44875000Y6875000D01*
D10*
X44625000Y6875000D02*
X44625000Y7125000D01*
D10*
X44875000Y6875000D02*
X45125000Y6875000D01*
D10*
X44875000Y6875000D02*
X44875000Y7125000D01*
D10*
X45125000Y6875000D02*
X45375000Y6875000D01*
D10*
X45125000Y6875000D02*
X45125000Y7125000D01*
D10*
X45375000Y6875000D02*
X45625000Y6875000D01*
D10*
X45375000Y6875000D02*
X45375000Y7125000D01*
D10*
X45625000Y6875000D02*
X45875000Y6875000D01*
D10*
X45625000Y6875000D02*
X45625000Y7125000D01*
D10*
X45875000Y6875000D02*
X46125000Y6875000D01*
D10*
X45875000Y6875000D02*
X45875000Y7125000D01*
D10*
X46125000Y6875000D02*
X46375000Y6875000D01*
D10*
X46125000Y6875000D02*
X46125000Y7125000D01*
D10*
X46375000Y6875000D02*
X46625000Y6875000D01*
D10*
X46375000Y6875000D02*
X46375000Y7125000D01*
D10*
X46625000Y6875000D02*
X46875000Y6875000D01*
D10*
X46625000Y6875000D02*
X46625000Y7125000D01*
D10*
X46875000Y6875000D02*
X47125000Y6875000D01*
D10*
X46875000Y6875000D02*
X46875000Y7125000D01*
D10*
X47125000Y6875000D02*
X47375000Y6875000D01*
D10*
X47125000Y6875000D02*
X47125000Y7125000D01*
D10*
X47375000Y6875000D02*
X47625000Y6875000D01*
D10*
X47375000Y6875000D02*
X47375000Y7125000D01*
D10*
X47625000Y6875000D02*
X47875000Y6875000D01*
D10*
X47625000Y6875000D02*
X47625000Y7125000D01*
D10*
X47875000Y6875000D02*
X48125000Y6875000D01*
D10*
X47875000Y6875000D02*
X47875000Y7125000D01*
D10*
X48125000Y6875000D02*
X48375000Y6875000D01*
D10*
X48125000Y6875000D02*
X48125000Y7125000D01*
D10*
X48375000Y6875000D02*
X48625000Y6875000D01*
D10*
X48375000Y6875000D02*
X48375000Y7125000D01*
D10*
X48625000Y6875000D02*
X48875000Y6875000D01*
D10*
X48625000Y6875000D02*
X48625000Y7125000D01*
D10*
X43125000Y7125000D02*
X43375000Y7125000D01*
D10*
X43125000Y7125000D02*
X43125000Y7375000D01*
D10*
X43375000Y7125000D02*
X43625000Y7125000D01*
D10*
X43375000Y7125000D02*
X43375000Y7375000D01*
D10*
X43625000Y7125000D02*
X43875000Y7125000D01*
D10*
X43625000Y7125000D02*
X43625000Y7375000D01*
D10*
X43875000Y7125000D02*
X44125000Y7125000D01*
D10*
X43875000Y7125000D02*
X43875000Y7375000D01*
D10*
X44125000Y7125000D02*
X44375000Y7125000D01*
D10*
X44125000Y7125000D02*
X44125000Y7375000D01*
D10*
X44375000Y7125000D02*
X44625000Y7125000D01*
D10*
X44375000Y7125000D02*
X44375000Y7375000D01*
D10*
X44625000Y7125000D02*
X44875000Y7125000D01*
D10*
X44625000Y7125000D02*
X44625000Y7375000D01*
D10*
X44875000Y7125000D02*
X45125000Y7125000D01*
D10*
X44875000Y7125000D02*
X44875000Y7375000D01*
D10*
X45125000Y7125000D02*
X45375000Y7125000D01*
D10*
X45125000Y7125000D02*
X45125000Y7375000D01*
D10*
X45375000Y7125000D02*
X45625000Y7125000D01*
D10*
X45375000Y7125000D02*
X45375000Y7375000D01*
D10*
X45625000Y7125000D02*
X45875000Y7125000D01*
D10*
X45625000Y7125000D02*
X45625000Y7375000D01*
D10*
X45875000Y7125000D02*
X46125000Y7125000D01*
D10*
X45875000Y7125000D02*
X45875000Y7375000D01*
D10*
X46125000Y7125000D02*
X46375000Y7125000D01*
D10*
X46125000Y7125000D02*
X46125000Y7375000D01*
D10*
X46375000Y7125000D02*
X46625000Y7125000D01*
D10*
X46375000Y7125000D02*
X46375000Y7375000D01*
D10*
X46625000Y7125000D02*
X46875000Y7125000D01*
D10*
X46625000Y7125000D02*
X46625000Y7375000D01*
D10*
X46875000Y7125000D02*
X47125000Y7125000D01*
D10*
X46875000Y7125000D02*
X46875000Y7375000D01*
D10*
X47125000Y7125000D02*
X47375000Y7125000D01*
D10*
X47125000Y7125000D02*
X47125000Y7375000D01*
D10*
X47375000Y7125000D02*
X47625000Y7125000D01*
D10*
X47375000Y7125000D02*
X47375000Y7375000D01*
D10*
X47625000Y7125000D02*
X47875000Y7125000D01*
D10*
X47625000Y7125000D02*
X47625000Y7375000D01*
D10*
X47875000Y7125000D02*
X48125000Y7125000D01*
D10*
X47875000Y7125000D02*
X47875000Y7375000D01*
D10*
X48125000Y7125000D02*
X48375000Y7125000D01*
D10*
X48125000Y7125000D02*
X48125000Y7375000D01*
D10*
X48375000Y7125000D02*
X48625000Y7125000D01*
D10*
X48375000Y7125000D02*
X48375000Y7375000D01*
D10*
X48625000Y7125000D02*
X48875000Y7125000D01*
D10*
X48625000Y7125000D02*
X48625000Y7375000D01*
D10*
X43125000Y7375000D02*
X43375000Y7375000D01*
D10*
X43375000Y7375000D02*
X43625000Y7375000D01*
D10*
X43625000Y7375000D02*
X43875000Y7375000D01*
D10*
X43875000Y7375000D02*
X44125000Y7375000D01*
D10*
X44125000Y7375000D02*
X44375000Y7375000D01*
D10*
X44375000Y7375000D02*
X44625000Y7375000D01*
D10*
X44625000Y7375000D02*
X44875000Y7375000D01*
D10*
X44875000Y7375000D02*
X45125000Y7375000D01*
D10*
X45125000Y7375000D02*
X45375000Y7375000D01*
D10*
X45375000Y7375000D02*
X45625000Y7375000D01*
D10*
X45625000Y7375000D02*
X45875000Y7375000D01*
D10*
X45875000Y7375000D02*
X46125000Y7375000D01*
D10*
X46125000Y7375000D02*
X46375000Y7375000D01*
D10*
X46375000Y7375000D02*
X46625000Y7375000D01*
D10*
X46625000Y7375000D02*
X46875000Y7375000D01*
D10*
X46875000Y7375000D02*
X47125000Y7375000D01*
D10*
X47125000Y7375000D02*
X47375000Y7375000D01*
D10*
X47375000Y7375000D02*
X47625000Y7375000D01*
D10*
X47625000Y7375000D02*
X47875000Y7375000D01*
D10*
X47875000Y7375000D02*
X48125000Y7375000D01*
D10*
X48125000Y7375000D02*
X48375000Y7375000D01*
D10*
X48375000Y7375000D02*
X48625000Y7375000D01*
D10*
X48625000Y7375000D02*
X48875000Y7375000D01*
D10*
X43125000Y26125000D02*
X43125000Y26375000D01*
D10*
X43125000Y26375000D02*
X43125000Y26625000D01*
D10*
X43125000Y26625000D02*
X43125000Y26875000D01*
D10*
X43125000Y26875000D02*
X43125000Y27125000D01*
D10*
X42125000Y27125000D02*
X42375000Y27125000D01*
D10*
X42125000Y27125000D02*
X42125000Y27375000D01*
D10*
X42375000Y27125000D02*
X42625000Y27125000D01*
D10*
X42375000Y27125000D02*
X42375000Y27375000D01*
D10*
X42625000Y27125000D02*
X42875000Y27125000D01*
D10*
X42625000Y27125000D02*
X42625000Y27375000D01*
D10*
X42875000Y27125000D02*
X43125000Y27125000D01*
D10*
X42875000Y27125000D02*
X42875000Y27375000D01*
D10*
X43125000Y27125000D02*
X43125000Y27375000D01*
D10*
X42125000Y27375000D02*
X42375000Y27375000D01*
D10*
X42125000Y27375000D02*
X42125000Y27625000D01*
D10*
X42375000Y27375000D02*
X42625000Y27375000D01*
D10*
X42375000Y27375000D02*
X42375000Y27625000D01*
D10*
X42625000Y27375000D02*
X42875000Y27375000D01*
D10*
X42625000Y27375000D02*
X42625000Y27625000D01*
D10*
X42875000Y27375000D02*
X43125000Y27375000D01*
D10*
X42875000Y27375000D02*
X42875000Y27625000D01*
D10*
X43125000Y27375000D02*
X43125000Y27625000D01*
D10*
X42125000Y27625000D02*
X42375000Y27625000D01*
D10*
X42125000Y27625000D02*
X42125000Y27875000D01*
D10*
X42375000Y27625000D02*
X42625000Y27625000D01*
D10*
X42375000Y27625000D02*
X42375000Y27875000D01*
D10*
X42625000Y27625000D02*
X42875000Y27625000D01*
D10*
X42625000Y27625000D02*
X42625000Y27875000D01*
D10*
X42875000Y27625000D02*
X43125000Y27625000D01*
D10*
X42875000Y27625000D02*
X42875000Y27875000D01*
D10*
X43125000Y27625000D02*
X43125000Y27875000D01*
D10*
X42125000Y27875000D02*
X42375000Y27875000D01*
D10*
X42125000Y27875000D02*
X42125000Y28125000D01*
D10*
X42375000Y27875000D02*
X42625000Y27875000D01*
D10*
X42375000Y27875000D02*
X42375000Y28125000D01*
D10*
X42625000Y27875000D02*
X42875000Y27875000D01*
D10*
X42625000Y27875000D02*
X42625000Y28125000D01*
D10*
X42875000Y27875000D02*
X43125000Y27875000D01*
D10*
X42875000Y27875000D02*
X42875000Y28125000D01*
D10*
X43125000Y27875000D02*
X43125000Y28125000D01*
D10*
X42125000Y28125000D02*
X42375000Y28125000D01*
D10*
X42125000Y28125000D02*
X42125000Y28375000D01*
D10*
X42375000Y28125000D02*
X42625000Y28125000D01*
D10*
X42375000Y28125000D02*
X42375000Y28375000D01*
D10*
X42625000Y28125000D02*
X42875000Y28125000D01*
D10*
X42625000Y28125000D02*
X42625000Y28375000D01*
D10*
X42875000Y28125000D02*
X43125000Y28125000D01*
D10*
X42875000Y28125000D02*
X42875000Y28375000D01*
D10*
X43125000Y28125000D02*
X43125000Y28375000D01*
D10*
X42125000Y28375000D02*
X42375000Y28375000D01*
D10*
X42125000Y28375000D02*
X42125000Y28625000D01*
D10*
X42375000Y28375000D02*
X42625000Y28375000D01*
D10*
X42375000Y28375000D02*
X42375000Y28625000D01*
D10*
X42625000Y28375000D02*
X42875000Y28375000D01*
D10*
X42625000Y28375000D02*
X42625000Y28625000D01*
D10*
X42875000Y28375000D02*
X43125000Y28375000D01*
D10*
X42875000Y28375000D02*
X42875000Y28625000D01*
D10*
X43125000Y28375000D02*
X43125000Y28625000D01*
D10*
X42125000Y28625000D02*
X42375000Y28625000D01*
D10*
X42125000Y28625000D02*
X42125000Y28875000D01*
D10*
X42375000Y28625000D02*
X42625000Y28625000D01*
D10*
X42375000Y28625000D02*
X42375000Y28875000D01*
D10*
X42625000Y28625000D02*
X42875000Y28625000D01*
D10*
X42625000Y28625000D02*
X42625000Y28875000D01*
D10*
X42875000Y28625000D02*
X43125000Y28625000D01*
D10*
X42875000Y28625000D02*
X42875000Y28875000D01*
D10*
X43125000Y28625000D02*
X43125000Y28875000D01*
D10*
X42125000Y28875000D02*
X42375000Y28875000D01*
D10*
X42125000Y28875000D02*
X42125000Y29125000D01*
D10*
X42375000Y28875000D02*
X42625000Y28875000D01*
D10*
X42375000Y28875000D02*
X42375000Y29125000D01*
D10*
X42625000Y28875000D02*
X42875000Y28875000D01*
D10*
X42625000Y28875000D02*
X42625000Y29125000D01*
D10*
X42875000Y28875000D02*
X43125000Y28875000D01*
D10*
X42875000Y28875000D02*
X42875000Y29125000D01*
D10*
X43125000Y28875000D02*
X43125000Y29125000D01*
D10*
X42125000Y29125000D02*
X42375000Y29125000D01*
D10*
X42125000Y29125000D02*
X42125000Y29375000D01*
D10*
X42375000Y29125000D02*
X42625000Y29125000D01*
D10*
X42375000Y29125000D02*
X42375000Y29375000D01*
D10*
X42625000Y29125000D02*
X42875000Y29125000D01*
D10*
X42625000Y29125000D02*
X42625000Y29375000D01*
D10*
X42875000Y29125000D02*
X43125000Y29125000D01*
D10*
X42875000Y29125000D02*
X42875000Y29375000D01*
D10*
X43125000Y29125000D02*
X43125000Y29375000D01*
D10*
X42125000Y29375000D02*
X42375000Y29375000D01*
D10*
X42125000Y29375000D02*
X42125000Y29625000D01*
D10*
X42375000Y29375000D02*
X42625000Y29375000D01*
D10*
X42375000Y29375000D02*
X42375000Y29625000D01*
D10*
X42625000Y29375000D02*
X42875000Y29375000D01*
D10*
X42625000Y29375000D02*
X42625000Y29625000D01*
D10*
X42875000Y29375000D02*
X43125000Y29375000D01*
D10*
X42875000Y29375000D02*
X42875000Y29625000D01*
D10*
X43125000Y29375000D02*
X43125000Y29625000D01*
D10*
X42125000Y29625000D02*
X42375000Y29625000D01*
D10*
X42125000Y29625000D02*
X42125000Y29875000D01*
D10*
X42375000Y29625000D02*
X42625000Y29625000D01*
D10*
X42375000Y29625000D02*
X42375000Y29875000D01*
D10*
X42625000Y29625000D02*
X42875000Y29625000D01*
D10*
X42625000Y29625000D02*
X42625000Y29875000D01*
D10*
X42875000Y29625000D02*
X43125000Y29625000D01*
D10*
X42875000Y29625000D02*
X42875000Y29875000D01*
D10*
X43125000Y29625000D02*
X43125000Y29875000D01*
D10*
X42125000Y29875000D02*
X42375000Y29875000D01*
D10*
X42125000Y29875000D02*
X42125000Y30125000D01*
D10*
X42375000Y29875000D02*
X42625000Y29875000D01*
D10*
X42375000Y29875000D02*
X42375000Y30125000D01*
D10*
X42625000Y29875000D02*
X42875000Y29875000D01*
D10*
X42625000Y29875000D02*
X42625000Y30125000D01*
D10*
X42875000Y29875000D02*
X43125000Y29875000D01*
D10*
X42875000Y29875000D02*
X42875000Y30125000D01*
D10*
X43125000Y29875000D02*
X43125000Y30125000D01*
D10*
X42125000Y30125000D02*
X42375000Y30125000D01*
D10*
X42125000Y30125000D02*
X42125000Y30375000D01*
D10*
X42375000Y30125000D02*
X42625000Y30125000D01*
D10*
X42375000Y30125000D02*
X42375000Y30375000D01*
D10*
X42625000Y30125000D02*
X42875000Y30125000D01*
D10*
X42625000Y30125000D02*
X42625000Y30375000D01*
D10*
X42875000Y30125000D02*
X43125000Y30125000D01*
D10*
X42875000Y30125000D02*
X42875000Y30375000D01*
D10*
X43125000Y30125000D02*
X43125000Y30375000D01*
D10*
X42125000Y30375000D02*
X42375000Y30375000D01*
D10*
X42125000Y30375000D02*
X42125000Y30625000D01*
D10*
X42375000Y30375000D02*
X42625000Y30375000D01*
D10*
X42375000Y30375000D02*
X42375000Y30625000D01*
D10*
X42625000Y30375000D02*
X42875000Y30375000D01*
D10*
X42625000Y30375000D02*
X42625000Y30625000D01*
D10*
X42875000Y30375000D02*
X43125000Y30375000D01*
D10*
X42875000Y30375000D02*
X42875000Y30625000D01*
D10*
X43125000Y30375000D02*
X43125000Y30625000D01*
D10*
X42125000Y30625000D02*
X42375000Y30625000D01*
D10*
X42125000Y30625000D02*
X42125000Y30875000D01*
D10*
X42375000Y30625000D02*
X42625000Y30625000D01*
D10*
X42375000Y30625000D02*
X42375000Y30875000D01*
D10*
X42625000Y30625000D02*
X42875000Y30625000D01*
D10*
X42625000Y30625000D02*
X42625000Y30875000D01*
D10*
X42875000Y30625000D02*
X43125000Y30625000D01*
D10*
X42875000Y30625000D02*
X42875000Y30875000D01*
D10*
X43125000Y30625000D02*
X43125000Y30875000D01*
D10*
X42125000Y30875000D02*
X42375000Y30875000D01*
D10*
X42125000Y30875000D02*
X42125000Y31125000D01*
D10*
X42375000Y30875000D02*
X42625000Y30875000D01*
D10*
X42375000Y30875000D02*
X42375000Y31125000D01*
D10*
X42625000Y30875000D02*
X42875000Y30875000D01*
D10*
X42625000Y30875000D02*
X42625000Y31125000D01*
D10*
X42875000Y30875000D02*
X43125000Y30875000D01*
D10*
X42875000Y30875000D02*
X42875000Y31125000D01*
D10*
X43125000Y30875000D02*
X43125000Y31125000D01*
D10*
X42125000Y31125000D02*
X42375000Y31125000D01*
D10*
X42125000Y31125000D02*
X42125000Y31375000D01*
D10*
X42375000Y31125000D02*
X42625000Y31125000D01*
D10*
X42375000Y31125000D02*
X42375000Y31375000D01*
D10*
X42625000Y31125000D02*
X42875000Y31125000D01*
D10*
X42625000Y31125000D02*
X42625000Y31375000D01*
D10*
X42875000Y31125000D02*
X43125000Y31125000D01*
D10*
X42875000Y31125000D02*
X42875000Y31375000D01*
D10*
X43125000Y31125000D02*
X43125000Y31375000D01*
D10*
X42125000Y31375000D02*
X42375000Y31375000D01*
D10*
X42125000Y31375000D02*
X42125000Y31625000D01*
D10*
X42375000Y31375000D02*
X42625000Y31375000D01*
D10*
X42375000Y31375000D02*
X42375000Y31625000D01*
D10*
X42625000Y31375000D02*
X42875000Y31375000D01*
D10*
X42625000Y31375000D02*
X42625000Y31625000D01*
D10*
X42875000Y31375000D02*
X43125000Y31375000D01*
D10*
X42875000Y31375000D02*
X42875000Y31625000D01*
D10*
X43125000Y31375000D02*
X43125000Y31625000D01*
D10*
X42125000Y31625000D02*
X42375000Y31625000D01*
D10*
X42125000Y31625000D02*
X42125000Y31875000D01*
D10*
X42375000Y31625000D02*
X42625000Y31625000D01*
D10*
X42375000Y31625000D02*
X42375000Y31875000D01*
D10*
X42625000Y31625000D02*
X42875000Y31625000D01*
D10*
X42625000Y31625000D02*
X42625000Y31875000D01*
D10*
X42875000Y31625000D02*
X43125000Y31625000D01*
D10*
X42875000Y31625000D02*
X42875000Y31875000D01*
D10*
X43125000Y31625000D02*
X43125000Y31875000D01*
D10*
X42125000Y31875000D02*
X42375000Y31875000D01*
D10*
X42125000Y31875000D02*
X42125000Y32125000D01*
D10*
X42375000Y31875000D02*
X42625000Y31875000D01*
D10*
X42375000Y31875000D02*
X42375000Y32125000D01*
D10*
X42625000Y31875000D02*
X42875000Y31875000D01*
D10*
X42625000Y31875000D02*
X42625000Y32125000D01*
D10*
X42875000Y31875000D02*
X43125000Y31875000D01*
D10*
X42875000Y31875000D02*
X42875000Y32125000D01*
D10*
X43125000Y31875000D02*
X43125000Y32125000D01*
D10*
X42125000Y34125000D02*
X42375000Y34125000D01*
D10*
X42125000Y34125000D02*
X42125000Y34375000D01*
D10*
X42375000Y34125000D02*
X42625000Y34125000D01*
D10*
X42375000Y34125000D02*
X42375000Y34375000D01*
D10*
X42625000Y34125000D02*
X42875000Y34125000D01*
D10*
X42625000Y34125000D02*
X42625000Y34375000D01*
D10*
X42875000Y34125000D02*
X43125000Y34125000D01*
D10*
X42875000Y34125000D02*
X42875000Y34375000D01*
D10*
X43125000Y34125000D02*
X43125000Y34375000D01*
D10*
X42125000Y34375000D02*
X42375000Y34375000D01*
D10*
X42125000Y34375000D02*
X42125000Y34625000D01*
D10*
X42375000Y34375000D02*
X42625000Y34375000D01*
D10*
X42375000Y34375000D02*
X42375000Y34625000D01*
D10*
X42625000Y34375000D02*
X42875000Y34375000D01*
D10*
X42625000Y34375000D02*
X42625000Y34625000D01*
D10*
X42875000Y34375000D02*
X43125000Y34375000D01*
D10*
X42875000Y34375000D02*
X42875000Y34625000D01*
D10*
X43125000Y34375000D02*
X43125000Y34625000D01*
D10*
X42125000Y34625000D02*
X42375000Y34625000D01*
D10*
X42125000Y34625000D02*
X42125000Y34875000D01*
D10*
X42375000Y34625000D02*
X42625000Y34625000D01*
D10*
X42375000Y34625000D02*
X42375000Y34875000D01*
D10*
X42625000Y34625000D02*
X42875000Y34625000D01*
D10*
X42625000Y34625000D02*
X42625000Y34875000D01*
D10*
X42875000Y34625000D02*
X43125000Y34625000D01*
D10*
X42875000Y34625000D02*
X42875000Y34875000D01*
D10*
X43125000Y34625000D02*
X43125000Y34875000D01*
D10*
X42125000Y34875000D02*
X42375000Y34875000D01*
D10*
X42125000Y34875000D02*
X42125000Y35125000D01*
D10*
X42375000Y34875000D02*
X42625000Y34875000D01*
D10*
X42375000Y34875000D02*
X42375000Y35125000D01*
D10*
X42625000Y34875000D02*
X42875000Y34875000D01*
D10*
X42625000Y34875000D02*
X42625000Y35125000D01*
D10*
X42875000Y34875000D02*
X43125000Y34875000D01*
D10*
X42875000Y34875000D02*
X42875000Y35125000D01*
D10*
X43125000Y34875000D02*
X43125000Y35125000D01*
D10*
X42125000Y35125000D02*
X42375000Y35125000D01*
D10*
X42125000Y35125000D02*
X42125000Y35375000D01*
D10*
X42375000Y35125000D02*
X42625000Y35125000D01*
D10*
X42375000Y35125000D02*
X42375000Y35375000D01*
D10*
X42625000Y35125000D02*
X42875000Y35125000D01*
D10*
X42625000Y35125000D02*
X42625000Y35375000D01*
D10*
X42875000Y35125000D02*
X43125000Y35125000D01*
D10*
X42875000Y35125000D02*
X42875000Y35375000D01*
D10*
X43125000Y35125000D02*
X43125000Y35375000D01*
D10*
X42125000Y35375000D02*
X42375000Y35375000D01*
D10*
X42125000Y35375000D02*
X42125000Y35625000D01*
D10*
X42375000Y35375000D02*
X42625000Y35375000D01*
D10*
X42375000Y35375000D02*
X42375000Y35625000D01*
D10*
X42625000Y35375000D02*
X42875000Y35375000D01*
D10*
X42625000Y35375000D02*
X42625000Y35625000D01*
D10*
X42875000Y35375000D02*
X43125000Y35375000D01*
D10*
X42875000Y35375000D02*
X42875000Y35625000D01*
D10*
X43125000Y35375000D02*
X43125000Y35625000D01*
D10*
X42125000Y35625000D02*
X42375000Y35625000D01*
D10*
X42125000Y35625000D02*
X42125000Y35875000D01*
D10*
X42375000Y35625000D02*
X42625000Y35625000D01*
D10*
X42375000Y35625000D02*
X42375000Y35875000D01*
D10*
X42625000Y35625000D02*
X42875000Y35625000D01*
D10*
X42625000Y35625000D02*
X42625000Y35875000D01*
D10*
X42875000Y35625000D02*
X43125000Y35625000D01*
D10*
X42875000Y35625000D02*
X42875000Y35875000D01*
D10*
X43125000Y35625000D02*
X43125000Y35875000D01*
D10*
X42125000Y35875000D02*
X42375000Y35875000D01*
D10*
X42125000Y35875000D02*
X42125000Y36125000D01*
D10*
X42375000Y35875000D02*
X42625000Y35875000D01*
D10*
X42375000Y35875000D02*
X42375000Y36125000D01*
D10*
X42625000Y35875000D02*
X42875000Y35875000D01*
D10*
X42625000Y35875000D02*
X42625000Y36125000D01*
D10*
X42875000Y35875000D02*
X43125000Y35875000D01*
D10*
X42875000Y35875000D02*
X42875000Y36125000D01*
D10*
X43125000Y35875000D02*
X43125000Y36125000D01*
D10*
X42125000Y36125000D02*
X42375000Y36125000D01*
D10*
X42125000Y36125000D02*
X42125000Y36375000D01*
D10*
X42375000Y36125000D02*
X42625000Y36125000D01*
D10*
X42375000Y36125000D02*
X42375000Y36375000D01*
D10*
X42625000Y36125000D02*
X42875000Y36125000D01*
D10*
X42625000Y36125000D02*
X42625000Y36375000D01*
D10*
X42875000Y36125000D02*
X43125000Y36125000D01*
D10*
X42875000Y36125000D02*
X42875000Y36375000D01*
D10*
X43125000Y36125000D02*
X43125000Y36375000D01*
D10*
X42125000Y36375000D02*
X42375000Y36375000D01*
D10*
X42125000Y36375000D02*
X42125000Y36625000D01*
D10*
X42375000Y36375000D02*
X42625000Y36375000D01*
D10*
X42375000Y36375000D02*
X42375000Y36625000D01*
D10*
X42625000Y36375000D02*
X42875000Y36375000D01*
D10*
X42625000Y36375000D02*
X42625000Y36625000D01*
D10*
X42875000Y36375000D02*
X43125000Y36375000D01*
D10*
X42875000Y36375000D02*
X42875000Y36625000D01*
D10*
X43125000Y36375000D02*
X43125000Y36625000D01*
D10*
X42125000Y36625000D02*
X42375000Y36625000D01*
D10*
X42125000Y36625000D02*
X42125000Y36875000D01*
D10*
X42375000Y36625000D02*
X42625000Y36625000D01*
D10*
X42375000Y36625000D02*
X42375000Y36875000D01*
D10*
X42625000Y36625000D02*
X42875000Y36625000D01*
D10*
X42625000Y36625000D02*
X42625000Y36875000D01*
D10*
X42875000Y36625000D02*
X43125000Y36625000D01*
D10*
X42875000Y36625000D02*
X42875000Y36875000D01*
D10*
X43125000Y36625000D02*
X43125000Y36875000D01*
D10*
X42125000Y36875000D02*
X42375000Y36875000D01*
D10*
X42125000Y36875000D02*
X42125000Y37125000D01*
D10*
X42375000Y36875000D02*
X42625000Y36875000D01*
D10*
X42375000Y36875000D02*
X42375000Y37125000D01*
D10*
X42625000Y36875000D02*
X42875000Y36875000D01*
D10*
X42625000Y36875000D02*
X42625000Y37125000D01*
D10*
X42875000Y36875000D02*
X43125000Y36875000D01*
D10*
X42875000Y36875000D02*
X42875000Y37125000D01*
D10*
X43125000Y36875000D02*
X43125000Y37125000D01*
D10*
X42125000Y37125000D02*
X42375000Y37125000D01*
D10*
X42125000Y37125000D02*
X42125000Y37375000D01*
D10*
X42375000Y37125000D02*
X42625000Y37125000D01*
D10*
X42375000Y37125000D02*
X42375000Y37375000D01*
D10*
X42625000Y37125000D02*
X42875000Y37125000D01*
D10*
X42625000Y37125000D02*
X42625000Y37375000D01*
D10*
X42875000Y37125000D02*
X43125000Y37125000D01*
D10*
X42875000Y37125000D02*
X42875000Y37375000D01*
D10*
X43125000Y37125000D02*
X43125000Y37375000D01*
D10*
X42125000Y37375000D02*
X42375000Y37375000D01*
D10*
X42125000Y37375000D02*
X42125000Y37625000D01*
D10*
X42375000Y37375000D02*
X42625000Y37375000D01*
D10*
X42375000Y37375000D02*
X42375000Y37625000D01*
D10*
X42625000Y37375000D02*
X42875000Y37375000D01*
D10*
X42625000Y37375000D02*
X42625000Y37625000D01*
D10*
X42875000Y37375000D02*
X43125000Y37375000D01*
D10*
X42875000Y37375000D02*
X42875000Y37625000D01*
D10*
X43125000Y37375000D02*
X43125000Y37625000D01*
D10*
X39125000Y37625000D02*
X39375000Y37625000D01*
D10*
X39125000Y37625000D02*
X39125000Y37875000D01*
D10*
X39375000Y37625000D02*
X39625000Y37625000D01*
D10*
X39375000Y37625000D02*
X39375000Y37875000D01*
D10*
X39625000Y37625000D02*
X39875000Y37625000D01*
D10*
X39625000Y37625000D02*
X39625000Y37875000D01*
D10*
X39875000Y37625000D02*
X40125000Y37625000D01*
D10*
X39875000Y37625000D02*
X39875000Y37875000D01*
D10*
X40125000Y37625000D02*
X40375000Y37625000D01*
D10*
X40125000Y37625000D02*
X40125000Y37875000D01*
D10*
X40375000Y37625000D02*
X40625000Y37625000D01*
D10*
X40375000Y37625000D02*
X40375000Y37875000D01*
D10*
X40625000Y37625000D02*
X40875000Y37625000D01*
D10*
X40625000Y37625000D02*
X40625000Y37875000D01*
D10*
X40875000Y37625000D02*
X41125000Y37625000D01*
D10*
X40875000Y37625000D02*
X40875000Y37875000D01*
D10*
X41125000Y37625000D02*
X41375000Y37625000D01*
D10*
X41125000Y37625000D02*
X41125000Y37875000D01*
D10*
X41375000Y37625000D02*
X41625000Y37625000D01*
D10*
X41375000Y37625000D02*
X41375000Y37875000D01*
D10*
X41625000Y37625000D02*
X41875000Y37625000D01*
D10*
X41625000Y37625000D02*
X41625000Y37875000D01*
D10*
X41875000Y37625000D02*
X42125000Y37625000D01*
D10*
X41875000Y37625000D02*
X41875000Y37875000D01*
D10*
X42125000Y37625000D02*
X42375000Y37625000D01*
D10*
X42125000Y37625000D02*
X42125000Y37875000D01*
D10*
X42375000Y37625000D02*
X42625000Y37625000D01*
D10*
X42375000Y37625000D02*
X42375000Y37875000D01*
D10*
X42625000Y37625000D02*
X42875000Y37625000D01*
D10*
X42625000Y37625000D02*
X42625000Y37875000D01*
D10*
X42875000Y37625000D02*
X43125000Y37625000D01*
D10*
X42875000Y37625000D02*
X42875000Y37875000D01*
D10*
X43125000Y37625000D02*
X43125000Y37875000D01*
D10*
X39125000Y37875000D02*
X39375000Y37875000D01*
D10*
X39125000Y37875000D02*
X39125000Y38125000D01*
D10*
X39375000Y37875000D02*
X39625000Y37875000D01*
D10*
X39375000Y37875000D02*
X39375000Y38125000D01*
D10*
X39625000Y37875000D02*
X39875000Y37875000D01*
D10*
X39625000Y37875000D02*
X39625000Y38125000D01*
D10*
X39875000Y37875000D02*
X40125000Y37875000D01*
D10*
X39875000Y37875000D02*
X39875000Y38125000D01*
D10*
X40125000Y37875000D02*
X40375000Y37875000D01*
D10*
X40125000Y37875000D02*
X40125000Y38125000D01*
D10*
X40375000Y37875000D02*
X40625000Y37875000D01*
D10*
X40375000Y37875000D02*
X40375000Y38125000D01*
D10*
X40625000Y37875000D02*
X40875000Y37875000D01*
D10*
X40625000Y37875000D02*
X40625000Y38125000D01*
D10*
X40875000Y37875000D02*
X41125000Y37875000D01*
D10*
X40875000Y37875000D02*
X40875000Y38125000D01*
D10*
X41125000Y37875000D02*
X41375000Y37875000D01*
D10*
X41125000Y37875000D02*
X41125000Y38125000D01*
D10*
X41375000Y37875000D02*
X41625000Y37875000D01*
D10*
X41375000Y37875000D02*
X41375000Y38125000D01*
D10*
X41625000Y37875000D02*
X41875000Y37875000D01*
D10*
X41625000Y37875000D02*
X41625000Y38125000D01*
D10*
X41875000Y37875000D02*
X42125000Y37875000D01*
D10*
X41875000Y37875000D02*
X41875000Y38125000D01*
D10*
X42125000Y37875000D02*
X42375000Y37875000D01*
D10*
X42125000Y37875000D02*
X42125000Y38125000D01*
D10*
X42375000Y37875000D02*
X42625000Y37875000D01*
D10*
X42375000Y37875000D02*
X42375000Y38125000D01*
D10*
X42625000Y37875000D02*
X42875000Y37875000D01*
D10*
X42625000Y37875000D02*
X42625000Y38125000D01*
D10*
X42875000Y37875000D02*
X43125000Y37875000D01*
D10*
X42875000Y37875000D02*
X42875000Y38125000D01*
D10*
X43125000Y37875000D02*
X43125000Y38125000D01*
D10*
X39125000Y38125000D02*
X39375000Y38125000D01*
D10*
X39125000Y38125000D02*
X39125000Y38375000D01*
D10*
X39375000Y38125000D02*
X39625000Y38125000D01*
D10*
X39375000Y38125000D02*
X39375000Y38375000D01*
D10*
X39625000Y38125000D02*
X39875000Y38125000D01*
D10*
X39625000Y38125000D02*
X39625000Y38375000D01*
D10*
X39875000Y38125000D02*
X40125000Y38125000D01*
D10*
X39875000Y38125000D02*
X39875000Y38375000D01*
D10*
X40125000Y38125000D02*
X40375000Y38125000D01*
D10*
X40125000Y38125000D02*
X40125000Y38375000D01*
D10*
X40375000Y38125000D02*
X40625000Y38125000D01*
D10*
X40375000Y38125000D02*
X40375000Y38375000D01*
D10*
X40625000Y38125000D02*
X40875000Y38125000D01*
D10*
X40625000Y38125000D02*
X40625000Y38375000D01*
D10*
X40875000Y38125000D02*
X41125000Y38125000D01*
D10*
X40875000Y38125000D02*
X40875000Y38375000D01*
D10*
X41125000Y38125000D02*
X41375000Y38125000D01*
D10*
X41125000Y38125000D02*
X41125000Y38375000D01*
D10*
X41375000Y38125000D02*
X41625000Y38125000D01*
D10*
X41375000Y38125000D02*
X41375000Y38375000D01*
D10*
X41625000Y38125000D02*
X41875000Y38125000D01*
D10*
X41625000Y38125000D02*
X41625000Y38375000D01*
D10*
X41875000Y38125000D02*
X42125000Y38125000D01*
D10*
X41875000Y38125000D02*
X41875000Y38375000D01*
D10*
X42125000Y38125000D02*
X42375000Y38125000D01*
D10*
X42125000Y38125000D02*
X42125000Y38375000D01*
D10*
X42375000Y38125000D02*
X42625000Y38125000D01*
D10*
X42375000Y38125000D02*
X42375000Y38375000D01*
D10*
X42625000Y38125000D02*
X42875000Y38125000D01*
D10*
X42625000Y38125000D02*
X42625000Y38375000D01*
D10*
X42875000Y38125000D02*
X43125000Y38125000D01*
D10*
X42875000Y38125000D02*
X42875000Y38375000D01*
D10*
X43125000Y38125000D02*
X43125000Y38375000D01*
D10*
X39125000Y38375000D02*
X39375000Y38375000D01*
D10*
X39125000Y38375000D02*
X39125000Y38625000D01*
D10*
X39375000Y38375000D02*
X39625000Y38375000D01*
D10*
X39375000Y38375000D02*
X39375000Y38625000D01*
D10*
X39625000Y38375000D02*
X39875000Y38375000D01*
D10*
X39625000Y38375000D02*
X39625000Y38625000D01*
D10*
X39875000Y38375000D02*
X40125000Y38375000D01*
D10*
X39875000Y38375000D02*
X39875000Y38625000D01*
D10*
X40125000Y38375000D02*
X40375000Y38375000D01*
D10*
X40125000Y38375000D02*
X40125000Y38625000D01*
D10*
X40375000Y38375000D02*
X40625000Y38375000D01*
D10*
X40375000Y38375000D02*
X40375000Y38625000D01*
D10*
X40625000Y38375000D02*
X40875000Y38375000D01*
D10*
X40625000Y38375000D02*
X40625000Y38625000D01*
D10*
X40875000Y38375000D02*
X41125000Y38375000D01*
D10*
X40875000Y38375000D02*
X40875000Y38625000D01*
D10*
X41125000Y38375000D02*
X41375000Y38375000D01*
D10*
X41125000Y38375000D02*
X41125000Y38625000D01*
D10*
X41375000Y38375000D02*
X41625000Y38375000D01*
D10*
X41375000Y38375000D02*
X41375000Y38625000D01*
D10*
X41625000Y38375000D02*
X41875000Y38375000D01*
D10*
X41625000Y38375000D02*
X41625000Y38625000D01*
D10*
X41875000Y38375000D02*
X42125000Y38375000D01*
D10*
X41875000Y38375000D02*
X41875000Y38625000D01*
D10*
X42125000Y38375000D02*
X42375000Y38375000D01*
D10*
X42125000Y38375000D02*
X42125000Y38625000D01*
D10*
X42375000Y38375000D02*
X42625000Y38375000D01*
D10*
X42375000Y38375000D02*
X42375000Y38625000D01*
D10*
X42625000Y38375000D02*
X42875000Y38375000D01*
D10*
X42625000Y38375000D02*
X42625000Y38625000D01*
D10*
X42875000Y38375000D02*
X43125000Y38375000D01*
D10*
X42875000Y38375000D02*
X42875000Y38625000D01*
D10*
X43125000Y38375000D02*
X43125000Y38625000D01*
D10*
X39125000Y38625000D02*
X39375000Y38625000D01*
D10*
X39375000Y38625000D02*
X39625000Y38625000D01*
D10*
X39625000Y38625000D02*
X39875000Y38625000D01*
D10*
X39875000Y38625000D02*
X40125000Y38625000D01*
D10*
X40125000Y38625000D02*
X40375000Y38625000D01*
D10*
X40375000Y38625000D02*
X40625000Y38625000D01*
D10*
X40625000Y38625000D02*
X40875000Y38625000D01*
D10*
X40875000Y38625000D02*
X41125000Y38625000D01*
D10*
X41125000Y38625000D02*
X41375000Y38625000D01*
D10*
X41375000Y38625000D02*
X41625000Y38625000D01*
D10*
X41625000Y38625000D02*
X41875000Y38625000D01*
D10*
X41875000Y38625000D02*
X42125000Y38625000D01*
D10*
X42125000Y38625000D02*
X42375000Y38625000D01*
D10*
X42375000Y38625000D02*
X42625000Y38625000D01*
D10*
X42625000Y38625000D02*
X42875000Y38625000D01*
D10*
X42875000Y38625000D02*
X43125000Y38625000D01*
%ADD20C,6.000*%
D20*
X16000000Y60000000D03*
%ADD21C,6.000*%
D21*
X16000000Y46000000D03*
%ADD22C,6.000*%
D22*
X12000000Y32000000D03*
%ADD23R,2.000X2.400*%
D23*
X22800000Y46000000D03*
%ADD24R,1.400X1.400*%
D24*
X25200000Y46000000D03*
%ADD25R,2.000X2.400*%
D25*
X22800000Y58000000D03*
%ADD26R,1.400X1.400*%
D26*
X25200000Y58000000D03*
%ADD27C,2.200*%
D27*
X18000000Y38000000D03*
%ADD28C,2.200*%
D28*
X38000000Y38000000D03*
%ADD29C,1.800*%
D29*
X42500000Y33000000D03*
%ADD30C,1.800*%
D30*
X47500000Y33000000D03*
%ADD31R,1.200X1.000*%
D31*
X42500000Y26600000D03*
%ADD32R,1.200X1.000*%
D32*
X42500000Y23400000D03*
%ADD33R,1.400X1.400*%
D33*
X42500000Y21000000D03*
%ADD34R,1.400X1.400*%
D34*
X42500000Y17000000D03*
%ADD35C,1.600*%
D35*
X31000000Y16000000D03*
%ADD36C,1.600*%
D36*
X31000000Y11000000D03*
%ADD37C,1.800*%
D37*
X21500000Y28500000D03*
%ADD38C,1.800*%
D38*
X26500000Y28500000D03*
%ADD39C,1.600*%
D39*
X20500000Y16000000D03*
%ADD40C,1.600*%
D40*
X20500000Y11000000D03*
%ADD41R,1.500X0.600*%
D41*
X30800000Y30405000D03*
%ADD42R,1.500X0.600*%
D42*
X30800000Y29135000D03*
%ADD43R,1.500X0.600*%
D43*
X30800000Y26595000D03*
%ADD44R,1.500X0.600*%
D44*
X36200000Y26595000D03*
%ADD45R,1.500X0.600*%
D45*
X36200000Y27865000D03*
%ADD46R,1.500X0.600*%
D46*
X36200000Y29135000D03*
%ADD47R,1.500X0.600*%
D47*
X36200000Y30405000D03*
%ADD48R,1.400X1.400*%
D48*
X34000000Y21500000D03*
%ADD49R,1.400X1.400*%
D49*
X38000000Y21500000D03*
%ADD50C,1.800*%
D50*
X33500000Y46000000D03*
%ADD51C,1.800*%
D51*
X38500000Y46000000D03*
%ADD52R,0.600X0.700*%
D52*
X29800000Y33500000D03*
%ADD53R,0.600X0.700*%
D53*
X31200000Y33500000D03*
%ADD54R,0.600X0.700*%
D54*
X33300000Y33500000D03*
%ADD55R,0.600X0.700*%
D55*
X34700000Y33500000D03*
%ADD56R,0.600X0.700*%
D56*
X36300000Y33500000D03*
%ADD57R,0.600X0.700*%
D57*
X37700000Y33500000D03*
%ADD58R,1.400X1.400*%
D58*
X34000000Y54000000D03*
%ADD59R,1.400X1.400*%
D59*
X38000000Y54000000D03*
%ADD60R,1.000X1.200*%
D60*
X39400000Y57000000D03*
%ADD61R,1.000X1.200*%
D61*
X42600000Y57000000D03*
%ADD62R,0.800X1.000*%
D62*
X48400000Y58000000D03*
%ADD63R,0.800X1.000*%
D63*
X51600000Y58000000D03*
%ADD64C,1.600*%
D64*
X49500000Y50000000D03*
%ADD65C,1.600*%
D65*
X54500000Y50000000D03*
%ADD66R,0.600X0.700*%
D66*
X55300000Y56000000D03*
%ADD67R,0.600X0.700*%
D67*
X56700000Y56000000D03*
%ADD68R,1.200X1.400*%
D68*
X58800000Y59500000D03*
%ADD69R,1.200X1.400*%
D69*
X58800000Y56500000D03*
%ADD70R,1.200X1.400*%
D70*
X65200000Y59500000D03*
%ADD71R,3.500X1.600*%
D71*
X62000000Y55800000D03*
%ADD72R,0.900X1.200*%
D72*
X73000000Y62000000D03*
%ADD73R,0.900X1.200*%
D73*
X75000000Y62000000D03*
%ADD74R,0.700X0.800*%
D74*
X57300000Y50000000D03*
%ADD75R,0.700X0.800*%
D75*
X58700000Y50000000D03*
%ADD76R,1.000X1.200*%
D76*
X18400000Y7000000D03*
%ADD77R,1.000X1.200*%
D77*
X21600000Y7000000D03*
%ADD78R,1.000X1.200*%
D78*
X25400000Y7000000D03*
%ADD79R,1.000X1.200*%
D79*
X28600000Y7000000D03*
%ADD80R,1.000X1.200*%
D80*
X32400000Y7000000D03*
%ADD81R,1.000X1.200*%
D81*
X35600000Y7000000D03*
%ADD82R,1.000X1.200*%
D82*
X39400000Y7000000D03*
%ADD83R,1.000X1.200*%
D83*
X42600000Y7000000D03*
%ADD84R,0.700X0.800*%
D84*
X49200000Y7000000D03*
%ADD85R,0.700X0.800*%
D85*
X50800000Y7000000D03*
%ADD86R,0.800X0.700*%
D86*
X53000000Y8700000D03*
%ADD87R,0.800X0.700*%
D87*
X53000000Y10300000D03*
%ADD88R,0.700X0.800*%
D88*
X55200000Y7000000D03*
%ADD89R,0.700X0.800*%
D89*
X56800000Y7000000D03*
%ADD90R,0.600X0.600*%
D90*
X55000000Y22000000D03*
%ADD91R,0.600X0.600*%
D91*
X57000000Y22000000D03*
%ADD92R,0.700X0.800*%
D92*
X59200000Y24000000D03*
%ADD93R,0.700X0.800*%
D93*
X60800000Y24000000D03*
%ADD94R,0.700X0.800*%
D94*
X59200000Y28000000D03*
%ADD95R,0.700X0.800*%
D95*
X60800000Y28000000D03*
%ADD96R,0.800X0.700*%
D96*
X60000000Y31200000D03*
%ADD97R,0.800X0.700*%
D97*
X60000000Y32800000D03*
%ADD98C,0.600*%
D98*
X48000000Y66500000D03*
%ADD99R,0.700X0.280*%
D99*
X67800000Y29250000D03*
%ADD100R,0.700X0.280*%
D100*
X67800000Y28750000D03*
%ADD101R,0.700X0.280*%
D101*
X67800000Y28250000D03*
%ADD102R,0.700X0.280*%
D102*
X67800000Y27750000D03*
%ADD103R,0.700X0.280*%
D103*
X67800000Y27250000D03*
%ADD104R,0.700X0.280*%
D104*
X67800000Y26750000D03*
%ADD105R,0.280X0.700*%
D105*
X68750000Y25800000D03*
%ADD106R,0.280X0.700*%
D106*
X69250000Y25800000D03*
%ADD107R,0.280X0.700*%
D107*
X69750000Y25800000D03*
%ADD108R,0.280X0.700*%
D108*
X70250000Y25800000D03*
%ADD109R,0.280X0.700*%
D109*
X70750000Y25800000D03*
%ADD110R,0.280X0.700*%
D110*
X71250000Y25800000D03*
%ADD111R,0.700X0.280*%
D111*
X72200000Y26750000D03*
%ADD112R,0.700X0.280*%
D112*
X72200000Y27250000D03*
%ADD113R,0.700X0.280*%
D113*
X72200000Y27750000D03*
%ADD114R,0.700X0.280*%
D114*
X72200000Y28250000D03*
%ADD115R,0.700X0.280*%
D115*
X72200000Y28750000D03*
%ADD116R,0.700X0.280*%
D116*
X72200000Y29250000D03*
%ADD117R,0.280X0.700*%
D117*
X68750000Y30200000D03*
%ADD118R,0.280X0.700*%
D118*
X69250000Y30200000D03*
%ADD119R,0.280X0.700*%
D119*
X69750000Y30200000D03*
%ADD120R,0.280X0.700*%
D120*
X70250000Y30200000D03*
%ADD121R,0.280X0.700*%
D121*
X70750000Y30200000D03*
%ADD122R,0.280X0.700*%
D122*
X71250000Y30200000D03*
%ADD123R,2.400X2.400*%
D123*
X70000000Y28000000D03*
%ADD124R,0.900X1.000*%
D124*
X68900000Y16000000D03*
%ADD125R,0.900X1.000*%
D125*
X71100000Y16000000D03*
%ADD126R,0.700X0.600*%
D126*
X64000000Y15300000D03*
%ADD127R,0.700X0.600*%
D127*
X64000000Y16700000D03*
%ADD128R,0.700X0.600*%
D128*
X76000000Y15300000D03*
%ADD129R,0.700X0.600*%
D129*
X76000000Y16700000D03*
%ADD130R,0.600X0.700*%
D130*
X77300000Y22000000D03*
%ADD131R,0.600X0.700*%
D131*
X78700000Y22000000D03*
%ADD132R,0.600X0.700*%
D132*
X77300000Y34000000D03*
%ADD133R,0.600X0.700*%
D133*
X78700000Y34000000D03*
%ADD134R,0.600X0.700*%
D134*
X61300000Y34000000D03*
%ADD135R,0.600X0.700*%
D135*
X62700000Y34000000D03*
%ADD136R,0.600X0.700*%
D136*
X61300000Y22000000D03*
%ADD137R,0.600X0.700*%
D137*
X62700000Y22000000D03*
%ADD138R,0.700X0.600*%
D138*
X62000000Y15300000D03*
%ADD139R,0.700X0.600*%
D139*
X62000000Y16700000D03*
%ADD140R,0.600X0.700*%
D140*
X77300000Y12000000D03*
%ADD141R,0.600X0.700*%
D141*
X78700000Y12000000D03*
%ADD142R,0.600X0.700*%
D142*
X85300000Y16000000D03*
%ADD143R,0.600X0.700*%
D143*
X86700000Y16000000D03*
%ADD144R,0.700X0.600*%
D144*
X86000000Y11300000D03*
%ADD145R,0.700X0.600*%
D145*
X86000000Y12700000D03*
%ADD146R,0.600X0.600*%
D146*
X91000000Y16900000D03*
%ADD147R,0.600X0.600*%
D147*
X91000000Y15100000D03*
%ADD148R,0.600X0.600*%
D148*
X93000000Y16000000D03*
%ADD149R,0.700X0.600*%
D149*
X92000000Y21300000D03*
%ADD150R,0.700X0.600*%
D150*
X92000000Y22700000D03*
%ADD151R,0.700X0.600*%
D151*
X86000000Y63300000D03*
%ADD152R,0.700X0.600*%
D152*
X86000000Y64700000D03*
%ADD153R,0.700X0.600*%
D153*
X92000000Y57300000D03*
%ADD154R,0.700X0.600*%
D154*
X92000000Y58700000D03*
%ADD155R,0.800X0.800*%
D155*
X94800000Y64000000D03*
%ADD156R,0.800X0.800*%
D156*
X97200000Y64000000D03*
%ADD157R,0.600X0.700*%
D157*
X85300000Y52000000D03*
%ADD158R,0.600X0.700*%
D158*
X86700000Y52000000D03*
%ADD159R,0.700X0.600*%
D159*
X80000000Y51300000D03*
%ADD160R,0.700X0.600*%
D160*
X80000000Y52700000D03*
%ADD161R,0.600X0.600*%
D161*
X91000000Y50900000D03*
%ADD162R,0.600X0.600*%
D162*
X91000000Y49100000D03*
%ADD163R,0.600X0.600*%
D163*
X93000000Y50000000D03*
%ADD164R,0.700X0.600*%
D164*
X96000000Y53300000D03*
%ADD165R,0.700X0.600*%
D165*
X96000000Y54700000D03*
%ADD166R,0.600X0.600*%
D166*
X91000000Y59100000D03*
%ADD167R,0.600X0.600*%
D167*
X91000000Y60900000D03*
%ADD168R,0.600X0.600*%
D168*
X93000000Y60000000D03*
%ADD169R,0.600X0.700*%
D169*
X83300000Y46000000D03*
%ADD170R,0.600X0.700*%
D170*
X84700000Y46000000D03*
%ADD171R,0.600X0.700*%
D171*
X83300000Y40000000D03*
%ADD172R,0.600X0.700*%
D172*
X84700000Y40000000D03*
%ADD173R,0.700X0.600*%
D173*
X90000000Y39300000D03*
%ADD174R,0.700X0.600*%
D174*
X90000000Y40700000D03*
%ADD175R,0.600X0.600*%
D175*
X81000000Y35900000D03*
%ADD176R,0.600X0.600*%
D176*
X81000000Y34100000D03*
%ADD177R,0.600X0.600*%
D177*
X83000000Y35000000D03*
%ADD178R,0.600X0.600*%
D178*
X95000000Y36900000D03*
%ADD179R,0.600X0.600*%
D179*
X95000000Y35100000D03*
%ADD180R,0.600X0.600*%
D180*
X97000000Y36000000D03*
%ADD181R,0.800X1.000*%
D181*
X86600000Y32000000D03*
%ADD182R,0.800X1.000*%
D182*
X89400000Y32000000D03*
%ADD183R,0.700X0.280*%
D183*
X75300000Y47750000D03*
%ADD184R,0.700X0.280*%
D184*
X75300000Y47250000D03*
%ADD185R,0.700X0.280*%
D185*
X75300000Y46750000D03*
%ADD186R,0.700X0.280*%
D186*
X75300000Y46250000D03*
%ADD187R,0.700X0.280*%
D187*
X75300000Y45750000D03*
%ADD188R,0.700X0.280*%
D188*
X75300000Y45250000D03*
%ADD189R,0.700X0.280*%
D189*
X75300000Y44750000D03*
%ADD190R,0.700X0.280*%
D190*
X75300000Y44250000D03*
%ADD191R,0.280X0.700*%
D191*
X76250000Y43300000D03*
%ADD192R,0.280X0.700*%
D192*
X76750000Y43300000D03*
%ADD193R,0.280X0.700*%
D193*
X77250000Y43300000D03*
%ADD194R,0.280X0.700*%
D194*
X77750000Y43300000D03*
%ADD195R,0.280X0.700*%
D195*
X78250000Y43300000D03*
%ADD196R,0.280X0.700*%
D196*
X78750000Y43300000D03*
%ADD197R,0.280X0.700*%
D197*
X79250000Y43300000D03*
%ADD198R,0.280X0.700*%
D198*
X79750000Y43300000D03*
%ADD199R,0.700X0.280*%
D199*
X80700000Y44250000D03*
%ADD200R,0.700X0.280*%
D200*
X80700000Y44750000D03*
%ADD201R,0.700X0.280*%
D201*
X80700000Y45250000D03*
%ADD202R,0.700X0.280*%
D202*
X80700000Y45750000D03*
%ADD203R,0.700X0.280*%
D203*
X80700000Y46250000D03*
%ADD204R,0.700X0.280*%
D204*
X80700000Y46750000D03*
%ADD205R,0.700X0.280*%
D205*
X80700000Y47250000D03*
%ADD206R,0.700X0.280*%
D206*
X80700000Y47750000D03*
%ADD207R,0.280X0.700*%
D207*
X76250000Y48700000D03*
%ADD208R,0.280X0.700*%
D208*
X76750000Y48700000D03*
%ADD209R,0.280X0.700*%
D209*
X77250000Y48700000D03*
%ADD210R,0.280X0.700*%
D210*
X77750000Y48700000D03*
%ADD211R,0.280X0.700*%
D211*
X78250000Y48700000D03*
%ADD212R,0.280X0.700*%
D212*
X78750000Y48700000D03*
%ADD213R,0.280X0.700*%
D213*
X79250000Y48700000D03*
%ADD214R,0.280X0.700*%
D214*
X79750000Y48700000D03*
%ADD215R,3.100X3.100*%
D215*
X78000000Y46000000D03*
%ADD216R,0.600X0.600*%
D216*
X88900000Y46600000D03*
%ADD217R,0.600X0.600*%
D217*
X88900000Y45400000D03*
%ADD218R,0.600X0.600*%
D218*
X91100000Y46000000D03*
%ADD219R,0.700X0.600*%
D219*
X70000000Y39300000D03*
%ADD220R,0.700X0.600*%
D220*
X70000000Y40700000D03*
%ADD221R,0.700X0.280*%
D221*
X59300000Y47750000D03*
%ADD222R,0.700X0.280*%
D222*
X59300000Y47250000D03*
%ADD223R,0.700X0.280*%
D223*
X59300000Y46750000D03*
%ADD224R,0.700X0.280*%
D224*
X59300000Y46250000D03*
%ADD225R,0.700X0.280*%
D225*
X59300000Y45750000D03*
%ADD226R,0.700X0.280*%
D226*
X59300000Y45250000D03*
%ADD227R,0.700X0.280*%
D227*
X59300000Y44750000D03*
%ADD228R,0.700X0.280*%
D228*
X59300000Y44250000D03*
%ADD229R,0.280X0.700*%
D229*
X60250000Y43300000D03*
%ADD230R,0.280X0.700*%
D230*
X60750000Y43300000D03*
%ADD231R,0.280X0.700*%
D231*
X61250000Y43300000D03*
%ADD232R,0.280X0.700*%
D232*
X61750000Y43300000D03*
%ADD233R,0.280X0.700*%
D233*
X62250000Y43300000D03*
%ADD234R,0.280X0.700*%
D234*
X62750000Y43300000D03*
%ADD235R,0.280X0.700*%
D235*
X63250000Y43300000D03*
%ADD236R,0.280X0.700*%
D236*
X63750000Y43300000D03*
%ADD237R,0.700X0.280*%
D237*
X64700000Y44250000D03*
%ADD238R,0.700X0.280*%
D238*
X64700000Y44750000D03*
%ADD239R,0.700X0.280*%
D239*
X64700000Y45250000D03*
%ADD240R,0.700X0.280*%
D240*
X64700000Y45750000D03*
%ADD241R,0.700X0.280*%
D241*
X64700000Y46250000D03*
%ADD242R,0.700X0.280*%
D242*
X64700000Y46750000D03*
%ADD243R,0.700X0.280*%
D243*
X64700000Y47250000D03*
%ADD244R,0.700X0.280*%
D244*
X64700000Y47750000D03*
%ADD245R,0.280X0.700*%
D245*
X60250000Y48700000D03*
%ADD246R,0.280X0.700*%
D246*
X60750000Y48700000D03*
%ADD247R,0.280X0.700*%
D247*
X61250000Y48700000D03*
%ADD248R,0.280X0.700*%
D248*
X61750000Y48700000D03*
%ADD249R,0.280X0.700*%
D249*
X62250000Y48700000D03*
%ADD250R,0.280X0.700*%
D250*
X62750000Y48700000D03*
%ADD251R,0.280X0.700*%
D251*
X63250000Y48700000D03*
%ADD252R,0.280X0.700*%
D252*
X63750000Y48700000D03*
%ADD253R,3.100X3.100*%
D253*
X62000000Y46000000D03*
%ADD254R,0.600X0.700*%
D254*
X69300000Y64000000D03*
%ADD255R,0.600X0.700*%
D255*
X70700000Y64000000D03*
%ADD256R,0.700X0.600*%
D256*
X54000000Y63300000D03*
%ADD257R,0.700X0.600*%
D257*
X54000000Y64700000D03*
%ADD258R,0.600X0.700*%
D258*
X91300000Y28000000D03*
%ADD259R,0.600X0.700*%
D259*
X92700000Y28000000D03*
%ADD260C,1.600*%
D260*
X96000000Y28350000D03*
%ADD261C,1.600*%
D261*
X96000000Y25810000D03*
%ADD262C,1.600*%
D262*
X96000000Y23270000D03*
%ADD263C,1.600*%
D263*
X96000000Y20730000D03*
%ADD264C,1.600*%
D264*
X96000000Y18190000D03*
%ADD265C,1.600*%
D265*
X96000000Y15650000D03*
%ADD266R,0.800X0.800*%
D266*
X70000000Y6000000D03*
%ADD267R,0.800X0.800*%
D267*
X71270000Y6000000D03*
%ADD268R,0.800X0.800*%
D268*
X72540000Y6000000D03*
%ADD269R,0.800X0.800*%
D269*
X73810000Y6000000D03*
%ADD270R,0.800X0.800*%
D270*
X75080000Y6000000D03*
%ADD271R,0.800X0.800*%
D271*
X76350000Y6000000D03*
%ADD272R,0.800X0.800*%
D272*
X77620000Y6000000D03*
%ADD273R,0.800X0.800*%
D273*
X78890000Y6000000D03*
%ADD274R,1.500X1.500*%
D274*
X96000000Y6000000D03*
%ADD275R,1.500X1.500*%
D275*
X96000000Y9000000D03*
%ADD276R,0.600X0.700*%
D276*
X81300000Y12000000D03*
%ADD277R,0.600X0.700*%
D277*
X82700000Y12000000D03*
%ADD278R,0.600X0.700*%
D278*
X81300000Y8000000D03*
%ADD279R,0.600X0.700*%
D279*
X82700000Y8000000D03*
%ADD280R,0.600X0.700*%
D280*
X83800000Y4500000D03*
%ADD281R,0.600X0.700*%
D281*
X85200000Y4500000D03*
%ADD282R,0.600X0.600*%
D282*
X87000000Y8900000D03*
%ADD283R,0.600X0.600*%
D283*
X87000000Y7100000D03*
%ADD284R,0.600X0.600*%
D284*
X89000000Y8000000D03*
%ADD285R,0.700X0.600*%
D285*
X92000000Y9300000D03*
%ADD286R,0.700X0.600*%
D286*
X92000000Y10700000D03*
%ADD287R,1.500X0.600*%
D287*
X81300000Y26905000D03*
%ADD288R,1.500X0.600*%
D288*
X81300000Y25635000D03*
%ADD289R,1.500X0.600*%
D289*
X81300000Y24365000D03*
%ADD290R,1.500X0.600*%
D290*
X81300000Y23095000D03*
%ADD291R,1.500X0.600*%
D291*
X86700000Y23095000D03*
%ADD292R,1.500X0.600*%
D292*
X86700000Y24365000D03*
%ADD293R,1.500X0.600*%
D293*
X86700000Y25635000D03*
%ADD294R,1.500X0.600*%
D294*
X86700000Y26905000D03*
%ADD295R,0.600X0.700*%
D295*
X83300000Y30000000D03*
%ADD296R,0.600X0.700*%
D296*
X84700000Y30000000D03*
M02*
